# xmcd CD database file
#
# Track frame offsets:
#	150
#	18401
#	32023
#	53141
#	65120
#	80983
#	112270
#	124361
#	139368
#	156127
#	168786
#	185358
#	201756
#	218106
#	228260
#	243478
#
# Disc length: 3321 seconds
#
# Revision: 0
# Processed by: cddbd v1.5.1PL2 Copyright (c) Steve Scherf et al.
# Submitted via: CDex 1.51
#
DISCID=ec0cf710
DTITLE=Little Willie Littlefield - MUSIC KEEPS YOU YOUNG
DYEAR=2006
DGENRE=Blues
TTITLE0=Everyday I have the blues
TTITLE1=You look so fine baby
TTITLE2=Mona Lisa
TTITLE3=Caldonia
TTITLE4=Fun at Thum
TTITLE5=Going down slow
TTITLE6=A little spanish
TTITLE7=Can't help it if I am still in love with you
TTITLE8=New Pinetop Boogie
TTITLE9=You're my best friend
TTITLE10=Lucky old sun
TTITLE11=China Town boogie
TTITLE12=One scotch, one bourbon, one beer
TTITLE13=Cajun Queen
TTITLE14=Kansas City
TTITLE15=Wooden heart
EXTD=YEAR: 2006
EXTT0=
EXTT1=
EXTT2=
EXTT3=
EXTT4=
EXTT5=
EXTT6=
EXTT7=
EXTT8=
EXTT9=
EXTT10=
EXTT11=
EXTT12=
EXTT13=
EXTT14=
EXTT15=
PLAYORDER=
